<?xml version="1.0" encoding="UTF-8"?>
<svg version="1.1" xmlns="http://www.w3.org/2000/svg" width="275" height="342">
<path d="M0 0 C9.24 0 18.48 0 28 0 C28.2475 2.92875 28.495 5.8575 28.75 8.875 C30.05588652 21.97047888 33.43738038 30.78184609 43.8125 39.3125 C54.39268736 44.91377566 66.65155468 45.73639815 78.32421875 43.30859375 C87.79202305 40.15265898 94.01079132 35.18007187 98.81640625 26.44140625 C102.88674408 18.04549489 103 9.16666975 103 0 C112.57 0 122.14 0 132 0 C132 19.01227443 129.18187584 36.49712594 116 51 C115.40574219 51.68578125 114.81148438 52.3715625 114.19921875 53.078125 C104.60574491 63.48595169 90.74683585 69.84416157 76.62890625 70.91015625 C57.09135965 71.57785844 39.16698784 70.37983911 23 58 C22.07960938 57.32517578 22.07960938 57.32517578 21.140625 56.63671875 C9.07736712 47.16225736 1.94828671 30.92021273 0 16 C-0.29079723 10.65031257 -0.13983406 5.36030546 0 0 Z " fill="#FAFAFE" transform="translate(71,124)"/>
<path d="M0 0 C1.52173828 0.0009668 1.52173828 0.0009668 3.07421875 0.00195312 C4.13253906 0.01806641 5.19085938 0.03417969 6.28125 0.05078125 C7.86873047 0.04594727 7.86873047 0.04594727 9.48828125 0.04101562 C17.38058537 0.0961715 17.38058537 0.0961715 20.78125 2.36328125 C21.14201355 4.27420044 21.14201355 4.27420044 21.12182617 6.62939453 C21.12159958 7.51015656 21.12137299 8.39091858 21.12113953 9.29837036 C21.10565567 10.25049408 21.09017181 11.2026178 21.07421875 12.18359375 C21.06997391 13.15738983 21.06572906 14.13118591 21.06135559 15.13449097 C21.04452786 18.2526993 21.00686811 21.37026742 20.96875 24.48828125 C20.95370846 26.59894902 20.94001914 28.70962689 20.92773438 30.8203125 C20.89461109 36.00152148 20.84437151 41.18235564 20.78125 46.36328125 C16.81194011 46.38794006 12.84265966 46.40612148 8.87329102 46.41821289 C7.52204614 46.42325182 6.17080674 46.43008302 4.81958008 46.4387207 C2.88104566 46.45080544 0.942472 46.45597953 -0.99609375 46.4609375 C-2.74780884 46.46879272 -2.74780884 46.46879272 -4.53491211 46.47680664 C-7.21875 46.36328125 -7.21875 46.36328125 -8.21875 45.36328125 C-8.34479257 42.29586343 -8.40745085 39.252213 -8.421875 36.18359375 C-8.42757507 35.25988983 -8.43327515 34.33618591 -8.43914795 33.38449097 C-8.44861345 31.42577262 -8.45513806 29.46703823 -8.45898438 27.50830078 C-8.4686867 24.50785577 -8.49969401 21.50809645 -8.53125 18.5078125 C-8.53778002 16.608077 -8.5430305 14.70833658 -8.546875 12.80859375 C-8.5592218 11.90851593 -8.5715686 11.00843811 -8.58428955 10.08108521 C-8.5797879 8.82495926 -8.5797879 8.82495926 -8.57519531 7.54345703 C-8.57884094 6.80700958 -8.58248657 6.07056213 -8.58624268 5.3117981 C-7.67465277 0.47837308 -4.36293153 -0.01400316 0 0 Z " fill="#F8F8FE" transform="translate(182.21875,28.63671875)"/>
<path d="M0 0 C1.01771484 -0.00128906 2.03542969 -0.00257812 3.08398438 -0.00390625 C4.15068359 -0.00003906 5.21738281 0.00382812 6.31640625 0.0078125 C7.37923828 0.00394531 8.44207031 0.00007813 9.53710938 -0.00390625 C11.06561523 -0.00197266 11.06561523 -0.00197266 12.625 0 C13.56013428 0.00112793 14.49526855 0.00225586 15.45874023 0.00341797 C17.87890625 0.1328125 17.87890625 0.1328125 20.87890625 1.1328125 C20.87890625 15.9828125 20.87890625 30.8328125 20.87890625 46.1328125 C11.63890625 46.1328125 2.39890625 46.1328125 -7.12109375 46.1328125 C-7.12109375 31.2828125 -7.12109375 16.4328125 -7.12109375 1.1328125 C-4.59490659 -0.13028108 -2.82462074 0.00341108 0 0 Z " fill="#F5F4FE" transform="translate(78.12109375,28.8671875)"/>
<path d="M0 0 C3.3 0 6.6 0 10 0 C10.33 7.59 10.66 15.18 11 23 C12.670625 20.875625 14.34125 18.75125 16.0625 16.5625 C16.61510498 15.87148193 17.16770996 15.18046387 17.73706055 14.46850586 C19.92401403 11.72842442 21.97224469 9.044444 23.83203125 6.06640625 C25.41772489 3.55739733 26.61280634 1.77321295 29 0 C33.4342696 -0.7259876 37.55274274 -0.541696 42 0 C38.10665761 5.27960824 34.07830984 10.42616666 29.9296875 15.5078125 C27.80563929 18.25101646 25.89469182 21.09480588 24 24 C25.01636015 25.32126819 26.03275858 26.64250694 27.04931641 27.96362305 C27.94024407 29.12215716 28.83053382 30.2811821 29.72021484 31.44067383 C32.09572078 34.53467637 34.48151371 37.61957052 36.890625 40.6875 C37.34904785 41.27442627 37.8074707 41.86135254 38.27978516 42.46606445 C39.16623514 43.60043085 40.05645427 44.73186339 40.95068359 45.86010742 C44 49.77513519 44 49.77513519 44 52 C39.81631175 52.70082087 36.16488877 52.89713007 32 52 C28.23389378 48.84737715 25.70460711 45.07024699 23 41 C21.82130507 39.43084712 20.63502573 37.86732945 19.4375 36.3125 C18.62240663 35.21024636 17.80876851 34.10690278 17 33 C13.47618313 35.54604597 13.47618313 35.54604597 11 39 C10.77049681 41.204364 10.58924067 43.41392173 10.4375 45.625 C10.35371094 46.81351562 10.26992187 48.00203125 10.18359375 49.2265625 C10.12300781 50.14179688 10.06242188 51.05703125 10 52 C6.7 52 3.4 52 0 52 C0 34.84 0 17.68 0 0 Z " fill="#F5F4FE" transform="translate(121,225)"/>
<path d="M0 0 C3.3 0 6.6 0 10 0 C10.01458252 1.02359619 10.02916504 2.04719238 10.04418945 3.10180664 C10.10246505 6.92457811 10.17969421 10.74677845 10.26245117 14.5690918 C10.2955636 16.2187366 10.32363756 17.86849096 10.34643555 19.51831055 C10.38023533 21.89939768 10.43256004 24.27949306 10.48828125 26.66015625 C10.49467117 27.38960953 10.5010611 28.11906281 10.50764465 28.87062073 C10.65003339 33.9074728 11.65836187 37.51658058 14 42 C17.60547606 44.47232644 20.97748729 44.14688883 25.1328125 43.48046875 C27.65296589 42.8319774 29.20028453 41.87170409 31 40 C32.26625424 36.20123729 32.23298547 32.57578074 32.31640625 28.61328125 C32.33718735 27.79627243 32.35796844 26.97926361 32.37937927 26.13749695 C32.44473079 23.52924966 32.50369273 20.92090225 32.5625 18.3125 C32.60569892 16.54360946 32.64931365 14.77472903 32.69335938 13.00585938 C32.80039743 8.67067537 32.90170544 4.33539071 33 0 C36.63 0 40.26 0 44 0 C44.07461471 4.98043609 44.12881987 9.96054089 44.16479492 14.94140625 C44.17980505 16.63287022 44.20021963 18.32429578 44.22631836 20.015625 C44.26304686 22.45843024 44.27980411 24.9007173 44.29296875 27.34375 C44.30845261 28.08991577 44.32393646 28.83608154 44.33988953 29.6048584 C44.34197316 36.22691554 42.75512787 42.0054902 38.6875 47.3125 C33.19907398 52.80092602 27.54448644 53.96575876 20 54 C13.548217 53.60542815 9.53767624 51.37157974 4.7265625 47.14453125 C0.14530517 41.45423651 -0.42992356 36.03634628 -0.29296875 29.00390625 C-0.28872391 28.17036118 -0.28447906 27.3368161 -0.28010559 26.47801208 C-0.26343314 23.83916689 -0.22580358 21.20111084 -0.1875 18.5625 C-0.17243833 16.76368297 -0.15875253 14.96485387 -0.14648438 13.16601562 C-0.11356728 8.77704385 -0.06186567 4.38865531 0 0 Z " fill="#F5F4FE" transform="translate(66,225)"/>
<path d="M0 0 C1.5390625 1.16796875 1.5390625 1.16796875 2.5390625 4.16796875 C1.1015625 6.85546875 1.1015625 6.85546875 -0.4609375 9.16796875 C-3.07461164 8.71991033 -5.30379093 8.24217685 -7.7109375 7.10546875 C-12.22842303 5.56541687 -17.18364991 5.27633234 -21.67578125 7.03515625 C-23.6868341 8.07332816 -23.6868341 8.07332816 -24.4609375 10.54296875 C-24.72709794 13.24238205 -24.72709794 13.24238205 -22.921875 15.17578125 C-19.88294875 17.6358644 -16.78131672 18.61318531 -13.0859375 19.66796875 C-6.63528735 21.53120435 -1.50292964 23.74982017 2.9140625 28.98046875 C4.85521554 32.7881151 5.06728159 34.94221601 4.5390625 39.16796875 C2.7712347 44.07860153 0.0531711 47.53473873 -4.4609375 50.16796875 C-11.8975568 53.14851855 -20.65282911 52.82641773 -28.15625 50.23828125 C-30.30979415 49.28961389 -32.38943902 48.28267645 -34.4609375 47.16796875 C-35.1209375 46.83796875 -35.7809375 46.50796875 -36.4609375 46.16796875 C-35.25712302 43.67435304 -34.00665028 41.48653792 -32.4609375 39.16796875 C-29.84595809 39.61625093 -27.53749694 40.13573319 -25.0859375 41.16796875 C-19.11597298 43.44224095 -14.42371251 43.50631189 -8.4609375 41.16796875 C-6.26607066 38.42964073 -6.26607066 38.42964073 -6.3359375 35.73046875 C-7.78510659 32.4295836 -9.73040987 31.57530102 -12.94140625 30.12890625 C-15.79119352 29.04201064 -18.67397427 28.13705755 -21.5859375 27.23046875 C-26.65177726 25.58662933 -29.87604866 24.13021431 -33.4609375 20.16796875 C-35.76203323 15.56577728 -35.69995586 12.12404219 -34.4609375 7.16796875 C-32.22364448 2.603891 -29.64976155 -0.09220892 -25.0625 -2.13671875 C-16.68567345 -4.37557029 -7.77879213 -3.80199391 0 0 Z " fill="#EFEEFE" transform="translate(206.4609375,226.83203125)"/>
<path d="M0 0 C9.57 0 19.14 0 29 0 C29 3.63 29 7.26 29 11 C19.43 11 9.86 11 0 11 C0 7.37 0 3.74 0 0 Z " fill="#F1F0FE" transform="translate(174,103)"/>
<path d="M0 0 C9.24 0 18.48 0 28 0 C28 3.63 28 7.26 28 11 C18.76 11 9.52 11 0 11 C0 7.37 0 3.74 0 0 Z " fill="#F1EFFE" transform="translate(71,103)"/>
<path d="M0 0 C9.57 0 19.14 0 29 0 C29 3.3 29 6.6 29 10 C19.43 10 9.86 10 0 10 C0 6.7 0 3.4 0 0 Z " fill="#F2F1FE" transform="translate(174,83)"/>
<path d="M0 0 C9.24 0 18.48 0 28 0 C28 3.3 28 6.6 28 10 C18.76 10 9.52 10 0 10 C0 6.7 0 3.4 0 0 Z " fill="#F2F0FE" transform="translate(71,83)"/>
<path d="M0 0 C1.258125 0.12375 2.51625 0.2475 3.8125 0.375 C4.87404297 0.47941406 4.87404297 0.47941406 5.95703125 0.5859375 C8 1 8 1 11 3 C8.375 6.875 8.375 6.875 5 8 C3.33378384 8.03874921 1.66605828 8.0450286 0 8 C-1.125 5.6875 -1.125 5.6875 -2 3 C-1.34 2.01 -0.68 1.02 0 0 Z " fill="#FBFBFE" transform="translate(187,247)"/>
<path d="M0 0 C3.63 0 7.26 0 11 0 C11 11.55 11 23.1 11 35 C10.67 35 10.34 35 10 35 C9.67 24.44 9.34 13.88 9 3 C6.30919898 1.65459949 4.86443593 2.28389102 2 3 C1.01 3.495 1.01 3.495 0 4 C0 2.68 0 1.36 0 0 Z " fill="#CAC9FF" transform="translate(99,225)"/>
<path d="M0 0 C6.16456078 0.38528505 9.98627748 2.47086025 15 6 C14.01 6.33 13.02 6.66 12 7 C11.34 6.34 10.68 5.68 10 5 C9.01 5 8.02 5 7 5 C6.67 5.66 6.34 6.32 6 7 C5.34 7 4.68 7 4 7 C4 7.99 4 8.98 4 10 C1.36 9.34 -1.28 8.68 -4 8 C-2.68 7.67 -1.36 7.34 0 7 C0.66 6.67 1.32 6.34 2 6 C2.99 5.67 3.98 5.34 5 5 C5 4.34 5 3.68 5 3 C2.525 2.01 2.525 2.01 0 1 C0 0.67 0 0.34 0 0 Z " fill="#D8D6FE" transform="translate(192,247)"/>
<path d="M0 0 C-2.97 3.96 -2.97 3.96 -6 8 C-7 5 -7 5 -6 2 C-6.66 1.67 -7.32 1.34 -8 1 C-5.29120665 -0.35439668 -2.99066732 -0.06501451 0 0 Z " fill="#ECEAFE" transform="translate(163,225)"/>
<path d="M0 0 C0.33 0 0.66 0 1 0 C0.03644647 9.41002278 0.03644647 9.41002278 -1 14 C-1.33 14 -1.66 14 -2 14 C-2.05410687 12.22950311 -2.09284119 10.45853151 -2.125 8.6875 C-2.14820313 7.70136719 -2.17140625 6.71523437 -2.1953125 5.69921875 C-2 3 -2 3 0 0 Z " fill="#E6E8FE" transform="translate(201,138)"/>
<path d="M0 0 C2.31 1.65 4.62 3.3 7 5 C6.34 5.66 5.68 6.32 5 7 C3.0625 6.3125 3.0625 6.3125 1 5 C0.25 2.375 0.25 2.375 0 0 Z " fill="#E1DEFE" transform="translate(108,158)"/>
<path d="M0 0 C3.3 0 6.6 0 10 0 C9.67 0.99 9.34 1.98 9 3 C8.34 2.67 7.68 2.34 7 2 C4.41865665 2.3872015 2.33880039 2.8305998 0 4 C0 2.68 0 1.36 0 0 Z " fill="#E0E0FE" transform="translate(99,225)"/>
<path d="M0 0 C-2.3125 2.0625 -2.3125 2.0625 -5 4 C-5.99 3.67 -6.98 3.34 -8 3 C-6 0 -6 0 -4 -0.75 C-2 -1 -2 -1 0 0 Z " fill="#DDD9FE" transform="translate(104,273)"/>
</svg>
